# xmcd
#
# Track frame offsets:
#	150
#	14476
#	43757
#	76292
#
# Disc length: 1394 seconds
#
# Revision: 0
# Processed by: cddbd v1.5.1PL0 Copyright (c) Steve Scherf et al.
# Submitted via: EasyCDDAExtractor 8.0.2.1
#
DISCID=28057004
DTITLE=MAX FARENTHIDE - ABOUT YOU
DYEAR=2005
DGENRE=House
TTITLE0=ABOUT YOU (RADIO EDIT)
TTITLE1=ABOUT YOU(EXTENTED VERSION
TTITLE2=ABOUT YOU(AMSTERDAM EDIT)
TTITLE3=BOUNCE YOUR EARS(BONUS TRACK)
EXTD=
EXTT0=
EXTT1=
EXTT2=
EXTT3=
PLAYORDER=
